<mxfile host="app.diagrams.net" modified="2021-09-02T07:40:38.964Z" agent="5.0 (Macintosh; Intel Mac OS X 10_15_7) AppleWebKit/537.36 (KHTML, like Gecko) Chrome/92.0.4515.159 Safari/537.36" etag="HbLchgHSPBbi6qQz-dRV" version="14.4.2" type="github">
  <diagram name="Page-1" id="e7e014a7-5840-1c2e-5031-d8a46d1fe8dd">
    <mxGraphModel dx="1186" dy="613" grid="1" gridSize="10" guides="1" tooltips="1" connect="1" arrows="1" fold="1" page="1" pageScale="1" pageWidth="1169" pageHeight="826" background="none" math="0" shadow="0">
      <root>
        <mxCell id="0" />
        <mxCell id="1" parent="0" />
        <mxCell id="xzcPflsFm2fOragjwGFY-45" value="Shop" style="rounded=0;whiteSpace=wrap;html=1;" vertex="1" parent="1">
          <mxGeometry x="240" y="900" width="110" height="50" as="geometry" />
        </mxCell>
        <mxCell id="xzcPflsFm2fOragjwGFY-47" value="Customer" style="rounded=0;whiteSpace=wrap;html=1;" vertex="1" parent="1">
          <mxGeometry x="360" y="540" width="120" height="60" as="geometry" />
        </mxCell>
        <mxCell id="xzcPflsFm2fOragjwGFY-49" style="edgeStyle=orthogonalEdgeStyle;rounded=0;orthogonalLoop=1;jettySize=auto;html=1;" edge="1" parent="1" source="xzcPflsFm2fOragjwGFY-48" target="xzcPflsFm2fOragjwGFY-45">
          <mxGeometry relative="1" as="geometry" />
        </mxCell>
        <mxCell id="xzcPflsFm2fOragjwGFY-48" value="Sell" style="rhombus;whiteSpace=wrap;html=1;" vertex="1" parent="1">
          <mxGeometry x="430" y="885" width="80" height="80" as="geometry" />
        </mxCell>
        <mxCell id="xzcPflsFm2fOragjwGFY-50" value="Product SubType&lt;br&gt;" style="rounded=0;whiteSpace=wrap;html=1;" vertex="1" parent="1">
          <mxGeometry x="525" y="960" width="120" height="60" as="geometry" />
        </mxCell>
        <mxCell id="xzcPflsFm2fOragjwGFY-51" value="" style="rounded=0;whiteSpace=wrap;html=1;" vertex="1" parent="1">
          <mxGeometry x="800" y="960" width="120" height="60" as="geometry" />
        </mxCell>
      </root>
    </mxGraphModel>
  </diagram>
</mxfile>
